# Blender v2.79 (sub 0) OBJ File: ''
# www.blender.org
o Cube
v -0.997756 -1.003614 1.001799
v -0.997756 0.996386 1.001799
v -0.997756 -1.003614 -0.998201
v -0.997756 0.996386 -0.998201
v 1.002244 -1.003614 1.001799
v 1.002244 0.996386 1.001799
v 1.002244 -1.003614 -0.998201
v 1.002244 0.996386 -0.998201
vt 0.000000 0.000000
vt 1.000000 0.000000
vt 1.000000 1.000000
vt 0.000000 1.000000
vt 0.000000 0.000000
vt 1.000000 0.000000
vt 1.000000 1.000000
vt 0.000000 1.000000
vt 0.000000 0.000000
vt 1.000000 0.000000
vt 1.000000 1.000000
vt 0.000000 1.000000
vt 0.000000 0.000000
vt 1.000000 0.000000
vt 1.000000 1.000000
vt 0.000000 1.000000
vt 1.000000 1.000000
vt 0.000000 1.000000
vt 0.000000 0.000000
vt 1.000000 0.000000
vn 1.0000 0.0000 0.0000
vn 0.0000 0.0000 1.0000
vn -1.0000 0.0000 0.0000
vn 0.0000 0.0000 -1.0000
vn 0.0000 1.0000 0.0000
vn 0.0000 -1.0000 0.0000
s off
f 1/1/1 3/2/1 4/3/1 2/4/1
f 3/5/2 7/6/2 8/7/2 4/8/2
f 7/9/3 5/10/3 6/11/3 8/12/3
f 5/13/4 1/14/4 2/15/4 6/16/4
f 3/5/5 1/14/5 5/17/5 7/18/5
f 8/19/6 6/20/6 2/15/6 4/8/6
